/* XPM */
static char *d31ce155f99046898c82862c041d2fb6[] = {
/* columns rows colors chars-per-pixel */
"64 64 222 2 ",
"   c #15480F",
".  c #174A15",
"X  c #1A5317",
"o  c #1F5822",
"O  c #205B20",
"+  c #256727",
"@  c #25652A",
"#  c #2E7527",
"$  c #2C732C",
"%  c #307C2E",
"&  c #296D36",
"*  c #2A7334",
"=  c #2E7936",
"-  c #2F7A3B",
";  c #317A3A",
":  c #2E7944",
">  c #337E44",
",  c #33714C",
"<  c #39775A",
"1  c #386B77",
"2  c #396E79",
"3  c #3D737D",
"4  c #40757F",
"5  c #348234",
"6  c #368935",
"7  c #34853B",
"8  c #388A3A",
"9  c #398D3A",
"0  c #3C933B",
"q  c #3D983A",
"w  c #429F3E",
"e  c #45A53F",
"r  c #378943",
"t  c #398C45",
"y  c #378748",
"u  c #34844C",
"i  c #368A4C",
"p  c #3C9443",
"a  c #3F9A43",
"s  c #3C934C",
"d  c #3F994B",
"f  c #358752",
"g  c #398D5A",
"h  c #3D9553",
"j  c #3E9756",
"k  c #3E9A5C",
"l  c #3D8465",
"z  c #3E9961",
"x  c #419C43",
"c  c #43974C",
"v  c #419D4C",
"b  c #439656",
"n  c #419E53",
"m  c #419C5C",
"M  c #43A344",
"N  c #44A44C",
"B  c #47A949",
"V  c #49AD4B",
"C  c #4CB34C",
"Z  c #50BA4D",
"A  c #44A453",
"S  c #46A953",
"D  c #49AD54",
"F  c #44A35B",
"G  c #49A75C",
"H  c #46A95D",
"J  c #49AC5B",
"K  c #4BB254",
"L  c #4FBB57",
"P  c #4DB45C",
"I  c #50BA55",
"U  c #51BC5A",
"Y  c #438A68",
"T  c #429D62",
"R  c #499B6A",
"E  c #49877B",
"W  c #4C9978",
"Q  c #519C7B",
"!  c #44A463",
"~  c #4BA467",
"^  c #47AA65",
"/  c #49AB66",
"(  c #44A36A",
")  c #47AB6B",
"_  c #4AAD6B",
"`  c #4BB164",
"'  c #4FBA67",
"]  c #4CB46C",
"[  c #51B667",
"{  c #52BD64",
"}  c #52BC6C",
"|  c #48A976",
" . c #49AD74",
".. c #52A676",
"X. c #4CB473",
"o. c #4EBA74",
"O. c #4DB47B",
"+. c #4EBA7C",
"@. c #52B471",
"#. c #51BC74",
"$. c #52B27B",
"%. c #52BC7B",
"&. c #56C55D",
"*. c #58C968",
"=. c #5DD36C",
"-. c #54C375",
";. c #59CD74",
":. c #54C37C",
">. c #59CB7B",
",. c #5CD379",
"<. c #63DF78",
"1. c #3F7580",
"2. c #417681",
"3. c #447B85",
"4. c #477E88",
"5. c #487F89",
"6. c #4E8A84",
"7. c #4C838C",
"8. c #528C8D",
"9. c #549887",
"0. c #4F8790",
"q. c #4F8890",
"w. c #508791",
"e. c #538B94",
"r. c #578F98",
"t. c #579196",
"y. c #589396",
"u. c #5C9D97",
"i. c #579098",
"p. c #589199",
"a. c #5B949A",
"s. c #5D9B9C",
"d. c #57A688",
"f. c #4EB884",
"g. c #51BE84",
"h. c #52BE8A",
"j. c #5ABD8D",
"k. c #59A896",
"l. c #5AB793",
"z. c #63BE84",
"x. c #62BB9A",
"c. c #5FA2A3",
"v. c #67AEAC",
"b. c #63B1A4",
"n. c #54C483",
"m. c #58C181",
"M. c #56C985",
"N. c #5BCD84",
"B. c #55C48B",
"V. c #59C58B",
"C. c #55C98B",
"Z. c #59CD8C",
"A. c #5DD486",
"S. c #5BD28C",
"D. c #57CB93",
"F. c #59CD94",
"G. c #5CCB9B",
"H. c #5BD394",
"J. c #5EDA94",
"K. c #57D298",
"L. c #5CD59B",
"P. c #5EDA9C",
"I. c #61CD8D",
"U. c #62DE8E",
"Y. c #66CB99",
"T. c #63DC95",
"R. c #60D59B",
"E. c #60DB9D",
"W. c #66E08C",
"Q. c #64E49C",
"!. c #66E999",
"~. c #5DD4A1",
"^. c #5EDAA3",
"/. c #6BCDAC",
"(. c #62DCA3",
"). c #68DAA6",
"_. c #63DEAB",
"`. c #77D7A9",
"'. c #6ADCB5",
"]. c #63E2A4",
"[. c #67E9A5",
"{. c #69E9A6",
"}. c #64E3AA",
"|. c #69E5AD",
" X c #66EAAC",
".X c #69ECAE",
"XX c #6CF2AB",
"oX c #67E5B1",
"OX c #66EAB3",
"+X c #6AEDB3",
"@X c #6AE2B8",
"#X c #6DEEBD",
"$X c #77E6B8",
"%X c #6BF2B6",
"&X c #6DF3BC",
"*X c #6EF9BC",
"=X c #71F4BB",
"-X c #78EDC3",
";X c #6FF5C7",
":X c #6EF9C2",
">X c #75F5C6",
",X c #7BF4CD",
"<X c #73F9CB",
"1X c #7BF9D2",
"2X c #7AF8DB",
"3X c #7FF9E2",
"4X c #87DDB9",
"5X c #82E4BB",
"6X c #8EE8CB",
"7X c #82F4CB",
"8X c #84F5D4",
"9X c #82F9DA",
"0X c #98F3D7",
"qX c #AAEFDB",
"wX c #88F8E4",
"eX c #9EF5E0",
"rX c #A8F6E2",
"tX c #B9F8E8",
"yX c #C5F7EA",
"uX c #DFFAF4",
"iX c #E5FBF7",
"pX c #F9FDFC",
/* pixels */
"3 3 3 3 3 3 3 1.2.2.2.2.3.3.3.3.4.4.4.4.5.5.7.7.7.7.7.7.7.7.7.7.7.7.7.7.7.7.7.7.7.7.5.5.5.4.4.4.3.3.3.3.2.2.2.2.2.1.3 3 3 3 3 3 ",
"3 3 3 3 3 1.1.2.2.2.2.3.3.3.3.4.4.4.5.5.5.7.7.7.7.7.7.7.7.7.7.7.7.7.7.7.7.7.7.7.7.7.7.7.7.5.5.4.4.4.3.3.3.3.2.2.2.2.1.3 3 3 3 3 ",
"3 3 3 3 3 1.2.2.2.2.3.3.3.4.4.4.5.5.7.7.7.7.7.7.7.7.7.7.7.7.7.7.0.7.0.0.7.7.7.7.7.7.7.7.7.7.7.5.5.5.4.4.3.3.3.2.2.2.1.3 3 3 3 3 ",
"3 3 3 3 3 1.2.2.2.3.3.3.4.4.4.5.5.7.7.7.7.7.7.0.7.0.0.0.w.0.w.w.w.w.w.w.w.0.0.0.7.7.7.7.7.7.7.7.7.5.5.4.4.3.3.3.2.2.2.1.3 3 3 3 ",
"3 3 3 3 2.2.2.2.3.3.3.4.4.4.5.5.7.7.7.7.7.7.0.0.0.w.w.w.w.w.w.e.e.e.e.e.w.w.w.w.w.0.0.7.7.7.7.7.7.7.7.5.4.4.3.3.3.2.2.2.2.3 3 3 ",
"3 3 3 3 2.2.2.2.3.3.3.4.5.5.7.7.7.7.7.7.0.0.w.w.w.w.e.w.e.e.e.e.e.e.e.e.e.e.e.w.w.w.w.w.0.7.7.7.7.7.7.5.5.4.4.4.3.3.2.2.2.1.3 3 ",
"3 3 3 2.2.2.2.3.3.4.4.5.5.7.7.7.7.7.7.0.w.w.w.w.e.e.e.e.e.e.e.e.e.e.e.e.e.e.e.e.e.w.e.w.w.0.0.0.7.7.7.7.7.5.4.4.3.3.2.2.2.2.2.3 ",
"3 3 2.2.2.2.2.3.4.4.5.5.7.7.7.7.7.0.0.w.w.e.e.e.e.e.e.e.e.r.r.i.e.i.e.p.e.e.e.e.e.e.e.e.w.w.w.w.0.7.7.7.7.7.5.4.4.3.3.3.2.2.2.1.",
"3 1.2.2.2.2.3.3.4.5.5.7.7.7.7.7.0.w.w.e.e.e.e.e.r.i.e.i.p.p.p.p.p.p.p.p.p.p.p.i.e.e.e.e.e.w.w.w.0.7.7.7.7.7.5.5.4.4.3.3.2.2.2.2.",
"3 2.2.2.2.2.3.4.4.5.7.7.7.7.0.0.0.w.e.e.e.e.e.r.i.p.p.p.p.p.p.p.p.a.p.p.p.p.p.p.p.p.e.e.e.e.e.w.w.0.7.7.7.7.7.5.4.4.3.3.3.2.2.2.",
"1.2.2.2.2.3.3.4.5.7.7.7.7.7.0.0.w.w.e.e.e.r.r.p.p.p.p.p.a.s.c.c.c.c.u.a.a.a.p.p.p.p.p.r.r.e.e.e.w.w.0.7.7.7.7.7.5.4.4.3.3.3.2.2.",
"2.2.2.2.2.3.4.4.5.7.7.7.7.0.w.w.e.e.e.e.r.p.p.p.p.a.k./.'.@XE.L.(.J.:._ R 9.y.a.a.a.p.p.p.e.e.e.e.w.w.0.0.7.7.7.7.5.4.4.3.3.2.2.",
"2.2.2.2.3.3.4.5.7.7.7.7.7.0.w.w.e.e.e.r.p.p.p.u.W %.-.>.P D D S P P { K M p h $.d.a.a.a.p.p.e.e.e.e.w.w.0.7.7.7.7.5.5.4.4.3.2.2.",
"2.2.2.3.3.4.4.5.7.7.7.7.0.w.w.w.e.e.i.p.p.y...! J N N S N v d v H ' ,.{ S x x a >.'.v.a.p.p.i.i.e.e.e.w.w.0.0.7.7.7.5.4.4.4.3.2.",
"2.2.2.3.3.4.5.7.7.7.7.7.w.w.e.e.e.r.p.p.6.$.d p N n n n s s n / N.N.#.] A A N M N K Z./.s.p.p.p.r.e.e.e.w.w.7.7.7.7.7.5.4.3.3.3.",
"2.2.3.3.4.4.5.7.7.7.0.w.w.w.e.e.e.i.a.9.%.S N A n n h h m ! ! _ +.B.X.) F d d N N M x D G.k.p.p.i.r.e.e.w.w.0.7.7.7.7.5.4.4.3.3.",
"2.3.3.4.4.5.7.7.7.7.w.w.w.e.e.e.r.p.l.o.S H #.^ m h k z  .Z.H.T.B.n.%.X.X.m s s d p a x S ^ u.p.p.e.e.e.e.w.w.0.7.7.7.7.4.4.3.3.",
"2.3.4.4.4.5.7.7.7.7.w.w.e.e.e.r.p.l.n x H F.h.T T O.B.J..X:X}.%. .O.n.J.Z.o.m h n d 9 9 M 0 b t.p.p.i.e.e.w.w.w.7.7.7.7.5.4.4.3.",
"2.3.4.4.5.7.7.7.7.w.w.w.e.e.e.p.k.T p d o.@X .( O.~.OX X&X^.H.].H.M.+. .( O.M.U.! h n a a M p ~ i.p.i.e.e.e.w.w.7.7.7.7.5.4.4.3.",
"2.3.4.4.7.7.7.7.7.w.w.w.e.e.p.8.( 5 p H |.~.( f.E._.~.P.P.P.].+X.XJ.S.n.O.+.H.XX%XR.) { N U B v < p.p.i.e.e.e.w.7.7.7.7.7.4.4.4.",
"3.4.4.5.7.7.7.7.w.w.w.e.e.e.i.k.h 8 G :.(.( ) h.C.L.^.^.L.}.+X&X:X XQ.Q.H.C.+.C.+.T.+XH.{.{ K 9 G 6.p.i.e.e.e.w.7.7.7.7.7.5.4.4.",
"3.4.4.5.7.7.7.7.w.w.w.e.e.r.y.O.7 A ^ C.g.X.+.B.H.^.^._.].%X%X}.'.8X&X&X}.%X].P.}.+.M.n.N.*.K 9 a %.i.i.e.e.e.w.w.7.7.7.7.5.4.4.",
"3.4.5.7.7.7.7.7.w.w.e.e.e.i.l ; = A T |._.C.h.H.].].~.~._.(.:     o j.,X1X%X+X>X%XXXZ.Z.M.] v x 6 { d.p.e.e.e.w.w.0.7.7.7.5.5.4.",
"4.4.4.7.7.7.7.7.w.w.e.e.e.6.f $ * h ) +Xh.h.K.L.%XOX,X,XY.O   . . + # ..,X&X*XXX*X[.J.{.Q.o.F N 6 x @.p.i.e.e.e.w.q.7.7.7.7.5.4.",
"4.4.5.5.7.7.7.0.w.w.e.e.i.E - @ & u H.F.O.D. X]. XOX,X-X* @ s n = r @ X V.+X.X XE.J.C.[.P.S.F A x q ^ 8.i.e.e.e.w.q.7.7.7.7.5.4.",
"4.4.5.7.7.7.7.0.w.e.e.i.i.R @ + & i S.B.D.(._.}.&X}.|.$.5 z.@.S n ~ A 5 : :X&X.XP.D.H.M.O. .k A D 0 ] W i.e.e.e.w.w.7.7.7.7.5.4.",
"4.5.5.7.7.7.7.7.w.e.e.i.9._ $ 7 - h oXf.}.L.+X;XOX+XoX{ S ~ $.X.S.N._ } * '.<X.XE.H.F.C.O. .) >.J p A x.p.e.e.e.w.w.7.7.7.7.5.4.",
"4.4.7.7.7.7.7.w.w.e.e.i.k./ H p - k 7XB.G.~.#X#X^.^.|.S `.m.H.$X5X$X`.N.r | wX<X%X+XE.H.( C.X.|.H N q l.p.e.e.e.w.w.7.7.7.7.7.4.",
"4.5.5.7.7.7.7.0.w.e.e.e.k.n ' r - T 5Xf.h.G.#X_.^.@X`.0 >.$XtXrXeXrX,XV.t T 3X9X<X<X8XJ.! C.o.Q.p x M O.i.i.e.e.w.w.7.7.7.7.7.4.",
"4.4.5.7.7.7.7.0.w.e.e.e.k.p A r > T 6Xf.h.G.>XL.K.oXY.x -.4XpXpXiXtX0XR.F k 2X9X1X2XwX|.%.:.o.,.a D M ! p.i.e.e.w.w.7.7.7.7.4.4.",
"4.4.5.7.7.7.7.w.w.e.e.i.9.J v r ) ( (.h.C.V.(.H.+X<XZ.p N.0XiXpXpXiX0XZ.] ^ 2X<X9X;X9X#X).) ^ ` N N 6 > i.i.e.e.w.w.7.7.7.7.7.4.",
"4.4.5.7.7.7.7.0.w.w.e.e.W ` v t _  .H.D.H.n.P.^.:X&X).a T.yXtXiXpXyX#Xh.s ~ wX<XwX;X<X=X$X! F v v a 5 > i.i.e.e.w.8.7.7.7.7.4.4.",
"4.4.5.7.7.7.7.0.w.w.e.i.E ] 8 h F O.C.L.E.n.H.P.}.}.(.*.I.$XyXuXpX0X).! P R 2X1X2X&XoXOXF.O.] J N M 9 m i.e.e.e.w.w.0.7.7.7.4.4.",
"4.4.5.7.7.7.7.7.w.w.e.e.6.~ $ s ! m O.g.O.C.n.].H.}._.P P X.).$XuXqX5X_ K Y.<X>X1XOXH.K.g.n.! P K K 0 R e.e.e.w.w.w.7.7.7.7.4.4.",
"4.4.5.7.7.7.7.7.w.w.e.e.8.g @ 7 #.u T T z n.S.H.H.H.|._ D s Y.R.`.@.z.v % #XOX}.%X&XC.B._ S.H A S D 9 Q e.e.e.w.w.w.7.7.7.7.4.4.",
"3.4.5.5.7.7.7.7.0.w.e.e.e.Y @ 5 -.- j u g X.J.].L.P.OX).b + 7 i ! v * 7 ! oX].].<X9Xn.%./ -.' A *.0 8 9.e.e.e.w.w.7.7.7.7.7.4.4.",
"3.4.4.5.7.7.7.7.w.w.w.e.e.E r 8 { s y i g ( n.S.B.H.7X0XY.8 + + & y c % R.].P..X:X8X%.:.] ;.` D U q R i.e.e.e.w.w.7.7.7.7.7.4.4.",
"3.4.4.5.7.7.7.7.0.w.w.e.e.8.f % ;.p u / u ! ( +.Z.C.(.$X|.j . # # X 6 n.L. XH.P.Q.Q.] ! ` H { M C -.b.i.e.e.e.w.0.7.7.7.7.5.4.4.",
"3.3.4.5.7.7.7.7.0.w.w.e.e.e.< = x P - y : f z ( n.J.H.n.Z.D. .s & g B.F.L..XH.C.:.A.^ F F v N V M 4Xs.i.e.e.w.w.7.7.7.7.7.5.4.4.",
"2.3.4.4.5.7.7.7.7.w.w.w.e.e.6.> $ { s = u u u k %.n.M.n.n.H.B.B.C.L.`.).}.E.L.[.A._ ! F A U M C [ v.i.e.e.e.w.w.7.7.7.7.5.4.4.3.",
"2.3.3.4.5.5.7.7.7.w.w.w.e.e.i.Y 7 p ;.- i u f ] m n.%.O.X.B.B.n.].-X7X=XF.H.J.Q.] ] ] d N U C M '.a.i.e.e.w.w.w.7.7.7.5.4.4.4.3.",
"2.2.3.4.4.5.7.7.7.7.w.w.e.e.e.i., $ 0 [ t ! u T ) g ! O.O.( O.o.%.V.V.J.[.M.o.-.-.;.d K K e e { k.i.e.e.e.w.w.7.7.7.7.5.4.4.4.2.",
"2.2.3.4.4.4.7.7.7.7.w.w.w.e.e.i.8.& 9 N J s %.O.k ! ! ~ ! T :.>.] o.A.U.!.>.F H J d N M 6 B D Y i.i.e.e.w.w.7.7.7.7.7.4.4.4.3.2.",
"2.2.2.3.3.4.5.7.7.7.7.w.w.e.e.e.e.6.- 6 N v n X.X.#.m m ! / _ _ ] } } ` ^ ! n N A { C w Z { Y i.i.e.e.w.w.0.7.7.7.7.4.4.4.3.2.2.",
"2.2.2.3.3.4.5.7.7.7.7.7.w.w.w.e.e.e.E y 0 S A H p r r t n ^ X.] ] ` H n A v v *.=.M B =.L ..i.e.e.e.w.w.0.7.7.7.7.7.4.4.4.2.2.2.",
"2.2.2.2.3.4.4.5.7.7.7.7.7.w.w.e.e.e.r.E T d a V D 9 p a A { ;.,.P v v N N L ;.*.B C <.[ 9.i.e.e.e.e.w.w.7.7.7.7.7.4.4.3.3.2.2.2.",
"2.2.2.2.3.3.4.4.5.7.7.7.7.0.w.w.e.e.e.e.e...%.0 q M M V V M a x N D &.*.*.M q Z <.U.Y.y.i.e.e.e.w.w.w.0.7.7.7.7.5.4.4.3.2.2.2.2.",
"3 2.2.2.2.3.3.4.4.5.7.6.7.7.q.w.w.w.e.e.e.i.8.l.} M M U A.T.W.*.K V U =.I C &.=.(.b.i.e.e.e.e.w.w.w.7.7.7.7.7.7.4.4.4.3.2.2.2.3 ",
"3 3 2.2.2.2.3.4.4.5.5.7.7.7.7.w.w.w.w.e.e.e.i.p.y.9.c N U K B M q w B { { A T 9.a.p.i.e.e.e.e.w.w.0.7.7.7.7.7.5.4.4.3.2.2.2.2.3 ",
"3 3 1.2.2.2.2.3.4.4.4.7.7.7.7.7.7.w.w.w.e.e.e.i.i.i.i.9.d.Q Y Y R ..x.k.E 8.p.i.i.e.e.e.e.w.w.w.7.7.7.7.7.7.5.4.4.3.2.2.2.2.4 3 ",
"3 3 3 3 2.2.2.2.3.3.4.4.5.7.7.7.7.7.0.w.w.w.e.e.e.i.i.i.i.i.i.i.p.p.p.i.i.i.e.e.e.e.e.w.w.w.w.7.7.7.7.7.7.5.4.4.3.2.2.2.2.4 3 3 ",
"3 3 3 3 3 2.2.2.2.3.4.4.5.5.7.7.7.7.7.0.0.w.w.e.e.e.e.e.e.e.e.e.e.e.e.e.e.e.e.e.e.w.w.w.w.w.7.7.7.7.7.7.5.4.4.3.3.2.2.2.3 3 3 3 ",
"3 3 3 3 3 3 2.2.2.2.3.4.4.5.7.7.7.7.7.7.7.0.0.w.w.w.e.e.e.e.e.e.e.e.e.e.e.e.e.w.w.w.w.0.7.7.7.7.7.7.7.5.4.4.4.3.2.2.2.3 3 3 3 3 ",
"3 3 3 3 3 3 3 2.2.2.2.3.4.4.4.5.7.7.7.7.7.7.7.0.w.w.w.w.w.w.w.w.e.e.e.w.w.w.w.w.w.0.7.7.7.7.7.7.7.5.5.4.4.4.3.2.2.2.3 3 3 3 3 3 ",
"2 3 3 3 3 3 3 3 2.2.2.2.3.3.4.4.5.5.7.7.7.7.7.7.7.0.0.0.w.w.w.w.w.w.w.w.w.w.w.7.7.7.7.7.7.7.7.7.5.5.4.4.3.3.2.2.2.2.3 3 3 3 3 3 ",
"2 3 3 3 3 3 3 3 3 2.2.2.2.3.3.4.4.4.5.7.7.7.7.7.7.7.7.7.7.7.0.7.w.w.7.0.7.7.7.7.7.7.7.7.7.7.5.5.4.4.4.3.3.2.2.2.1.3 3 3 3 3 3 3 ",
"2 2 3 3 3 3 3 3 3 3 1.2.2.2.2.3.3.4.4.4.5.5.7.7.7.7.7.7.7.7.7.7.7.7.7.7.7.7.7.7.7.7.7.7.5.5.5.4.4.4.3.2.2.2.2.2.3 3 3 3 3 3 3 3 ",
"2 2 2 2 3 3 3 3 3 3 3 2.2.2.2.3.3.3.3.4.4.4.5.5.7.7.7.7.7.7.7.7.7.7.7.7.7.7.7.7.7.7.5.5.4.4.4.4.3.3.2.2.2.2.2.3 3 3 3 3 3 3 3 2 ",
"2 2 2 2 2 3 3 3 3 3 3 3 2.2.2.2.2.2.3.3.3.4.4.4.5.5.5.5.5.7.7.7.7.7.7.7.7.5.7.5.5.5.5.4.4.4.3.3.3.2.2.2.2.2.3 3 3 3 3 3 3 2 2 2 ",
"2 2 2 2 2 2 3 3 3 3 3 3 3 1.1.2.2.2.2.2.3.3.3.4.4.4.4.4.4.5.5.5.5.5.5.5.5.4.4.4.4.4.4.4.3.3.3.2.2.2.2.2.1.3 3 3 3 3 3 3 2 2 2 2 ",
"1 2 2 2 2 2 2 3 3 3 3 3 3 3 3 2.2.2.2.2.2.2.3.3.3.3.4.4.4.4.4.4.4.4.4.4.4.4.4.4.3.3.3.3.2.2.2.2.2.2.2.3 3 3 3 3 3 3 2 2 2 2 2 2 ",
"1 1 2 2 2 2 2 2 2 3 3 3 3 3 3 3 3 3 2.2.2.2.2.2.2.3.3.3.3.3.3.3.3.3.3.3.3.3.3.3.3.2.2.2.2.2.2.2.1.1.3 3 3 3 3 3 3 2 2 2 2 2 2 2 ",
"1 1 1 2 2 2 2 2 2 2 3 3 3 3 3 3 3 3 3 1.2.2.2.2.2.2.2.2.2.2.2.2.3.2.2.2.2.2.2.2.2.2.2.2.2.2.1.1.3 3 3 3 3 3 3 3 2 2 2 2 2 2 2 1 ",
"1 1 2 2 2 2 2 2 2 2 2 3 3 3 3 3 3 3 3 4 3 1.2.2.2.2.2.2.2.2.2.2.2.2.2.2.2.2.2.2.2.2.2.1.1.3 3 3 3 3 3 3 3 3 3 2 2 2 2 2 2 2 2 1 "
};
