/* XPM */
static char *_6dd5d3f1f584d72aea24f7a7b4295d9[] = {
/* columns rows colors chars-per-pixel */
"64 64 256 2 ",
"   c #090E1C",
".  c #100F1F",
"X  c #0B111F",
"o  c #0C0E21",
"O  c #120F22",
"+  c #0C1324",
"@  c #0F1827",
"#  c #0D152B",
"$  c #0D192E",
"%  c #121225",
"&  c #14152C",
"*  c #1B152E",
"=  c #14192E",
"-  c #0A1933",
";  c #0D1B34",
":  c #0C1D3B",
">  c #141632",
",  c #1B1634",
"<  c #121B34",
"1  c #1B1A35",
"2  c #1D163B",
"3  c #141D3B",
"4  c #1C1C3C",
"5  c #23163C",
"6  c #25183A",
"7  c #221C3C",
"8  c #0E213D",
"9  c #152036",
"0  c #12213C",
"q  c #1B213D",
"w  c #22223C",
"e  c #0D1F42",
"r  c #161D46",
"t  c #1C1D43",
"y  c #0F1F58",
"u  c #221D42",
"i  c #2B1D44",
"p  c #261A49",
"a  c #2A1C4B",
"s  c #341D4B",
"d  c #261D53",
"f  c #361D58",
"g  c #0E2344",
"h  c #0E274A",
"j  c #132343",
"k  c #1B2244",
"l  c #13254B",
"z  c #1C234B",
"x  c #142A4C",
"c  c #192949",
"v  c #0E2B54",
"b  c #152D54",
"n  c #1B2C53",
"m  c #182B5A",
"M  c #17345A",
"N  c #222345",
"B  c #23244C",
"V  c #2C244C",
"C  c #27284B",
"Z  c #35254B",
"A  c #35334D",
"S  c #242452",
"D  c #2B2453",
"F  c #242B53",
"G  c #2B2B54",
"H  c #24265B",
"J  c #2B245B",
"K  c #242B5B",
"L  c #2C2A5C",
"P  c #332353",
"I  c #34245B",
"U  c #372859",
"Y  c #27325A",
"T  c #393657",
"R  c #171F6A",
"E  c #2A1C63",
"W  c #371E67",
"Q  c #142E69",
"!  c #193866",
"~  c #193B72",
"^  c #2A2B65",
"/  c #3C2463",
"(  c #372A67",
")  c #283567",
"_  c #373467",
"`  c #2B2E73",
"'  c #392B76",
"]  c #283874",
"[  c #383676",
"{  c #4F195D",
"}  c #44285B",
"|  c #423C59",
" . c #441C63",
".. c #422B64",
"X. c #462867",
"o. c #552B6A",
"O. c #453469",
"+. c #59316E",
"@. c #482A75",
"#. c #572A78",
"$. c #473777",
"%. c #57367A",
"&. c #662C76",
"*. c #643479",
"=. c #3B425B",
"-. c #1A436B",
";. c #184677",
":. c #1A557E",
">. c #26446B",
",. c #274778",
"<. c #374676",
"1. c #2F547A",
"2. c #3E737E",
"3. c #4B4E71",
"4. c #48467B",
"5. c #545878",
"6. c #634C7D",
"7. c #4C687A",
"8. c #536478",
"9. c #43747F",
"0. c #64637A",
"q. c #1A2C82",
"w. c #2D3783",
"e. c #383B86",
"r. c #562C84",
"t. c #493986",
"y. c #593686",
"u. c #483490",
"i. c #5A3C95",
"p. c #663888",
"a. c #77398C",
"s. c #683C96",
"d. c #793F95",
"f. c #563DA2",
"g. c #7238A8",
"h. c #1A538C",
"j. c #264884",
"k. c #394787",
"l. c #275686",
"z. c #375588",
"x. c #304A96",
"c. c #275897",
"v. c #38599A",
"b. c #1C6399",
"n. c #3F7580",
"m. c #276695",
"M. c #306B93",
"N. c #3A6998",
"B. c #365BA7",
"V. c #3664A6",
"C. c #2D76AF",
"Z. c #3877A5",
"A. c #3969B4",
"S. c #464787",
"D. c #574889",
"F. c #4F5789",
"G. c #464899",
"H. c #594898",
"J. c #475797",
"K. c #56559B",
"L. c #635787",
"P. c #664698",
"I. c #76459A",
"U. c #6F5297",
"Y. c #586888",
"T. c #417781",
"R. c #457B85",
"E. c #4D7986",
"W. c #49728C",
"Q. c #477E88",
"!. c #487F89",
"~. c #587989",
"^. c #476399",
"/. c #56659C",
"(. c #5C7A94",
"). c #66678A",
"_. c #6E6D97",
"`. c #677996",
"'. c #4F53AB",
"]. c #5959A6",
"[. c #6649A6",
"{. c #7548A8",
"}. c #6755A9",
"|. c #6F4FB0",
" X c #794CB3",
".X c #6656B6",
"XX c #7656B5",
"oX c #4865A8",
"OX c #5768AB",
"+X c #4976AA",
"@X c #4F6FB4",
"#X c #5A76B9",
"$X c #6665B5",
"%X c #6F72B6",
"&X c #3A72C2",
"*X c #685CC5",
"=X c #5372C7",
"-X c #6977C4",
";X c #7471CB",
":X c #81309B",
">X c #89449F",
",X c #8643A5",
"<X c #8F50B0",
"1X c #8457BA",
"2X c #AA50B6",
"3X c #8570B3",
"4X c #AB66BC",
"5X c #9B5DCC",
"6X c #846BC9",
"7X c #9070CB",
"8X c #AC71D0",
"9X c #3389B6",
"0X c #4B828C",
"qX c #52848E",
"wX c #5A828F",
"eX c #4F8690",
"rX c #548691",
"tX c #5B8693",
"yX c #578993",
"uX c #698597",
"iX c #6D8998",
"pX c #4783B6",
"aX c #4A87B3",
"sX c #6D89AE",
"dX c #3893C8",
"fX c #38ACD0",
"gX c #4A8BC8",
"hX c #508FCB",
"jX c #6888C8",
"kX c #6697D6",
"lX c #7191D1",
"zX c #4EABD3",
"xX c #68A7DA",
"cX c #74B5DA",
"vX c #5BA1E3",
"bX c #78ACE4",
"nX c #71B2E4",
"mX c #51C3E5",
"MX c #7ACAEC",
"NX c #8B8FD6",
"BX c #A98FD0",
"VX c #84ABDD",
"CX c #8A94E3",
"ZX c #98A7E6",
"AX c #8EB1E5",
"SX c #A8A0E0",
"DX c #A9B3E9",
"FX c #C78CDB",
"GX c #D798E4",
"HX c #E7BEEE",
"JX c #82CEDA",
"KX c #96C8EC",
"LX c #8CD2EC",
"PX c #A7C9ED",
"IX c #99E1F3",
"UX c #B2E8F5",
/* pixels */
"2.n.T.T.T.T.T.R.R.R.R.R.R.Q.Q.!.!.!.0X0X0X0X0X0X0X0X0XeXeXeXeX0XrX0X0X0X0X0X0X0X0X0X0X0X0X!.!.!.!.Q.R.R.R.R.R.R.T.T.T.T.T.n.2.2.",
"2.T.T.T.T.T.R.R.R.R.R.R.Q.!.!.0X0X0X0X0X0X0X0X0XeXeXrXrXrXrXrXrXL.D.Y.4.(.rX0X0X0X0X0X0X0X0X0X0X!.!.!.Q.R.R.R.R.R.T.T.T.T.n.2.2.",
"n.T.T.T.T.R.R.R.R.R.Q.!.!.!.0X0X0X0X0X0X0X0XrXyXrXiXiX`.`.).L.U.,Xd.,X..#.y.3.3.5.tXrX0X0X0X0X0X0X0X!.!.Q.R.R.R.R.R.T.T.T.T.n.2.",
"T.T.T.T.R.R.R.R.R.!.!.!.0X0X0X0X0X0X0X0XeXrXiX_.U.%.$.t.H.H.P.|.{.P.t.t.' @.r.#.X.p.L.~.rXyX0X0X0X0X0X0X!.Q.Q.R.R.R.R.T.T.T.T.n.",
"T.T.T.T.R.R.R.R.!.!.0X0X0X0X0X0X0X0XeXrX_.{.1X1X1X1X;X-XOXJ.J.v.z.] G G L ^ ( @.r.#./ P A 5.yX0X0X0X0X0X0X!.Q.R.R.R.R.R.T.T.T.T.",
"T.T.T.R.R.R.R.Q.!.!.0X0X0X0X0XyXeXrX%XBX8X8X X].oX^.^.Y G Y n ! ~ h.l.c.) ) F G G L J P s 6 A 7.yXyX0X0X0X0X!.!.Q.R.R.R.T.T.T.T.",
"T.T.T.R.R.R.Q.!.0X0X0X0X0XrXY.iXtX1X6XlX#XoX] M c N k c c j l j 9 ; : e e m b b k k B N D / s i | yX0X0X0X0X0X!.Q.Q.R.R.R.T.T.T.",
"T.T.R.R.R.!.!.0X0X0X0X0X0X^.(.(.D.;XkXN.,.,.n l 0 0 9 0 j j j M Q j ; ; j l l j j 0 q k k t S / W T 7.0X0X0X0X0X!.R.R.R.R.R.T.T.",
"T.R.R.R.Q.!.!.0X0X0X0X0XyXsXY.$.@XgXl.Y n j < < j x x k 7 1 1 J e.L q 1 K [ k.^ Q m l 3 : 3 k z J W P =.qX0X0X0X0X!.Q.R.R.R.R.T.",
"T.R.R.R.Q.!.0X0X0X0X0XyXiXD.$.oXgX,.m l 3 < h Q Q ` S / U a s i Z P.K.D.$.$.G.S.'.A.w.n 3 $ < j j 4 f f T qX0X0X0X0XQ.R.R.R.R.R.",
"R.R.R.R.!.0X0X0X0XrX).D.[..XG.9X! c 9 : v Q y R q.m = t z D S N V %.O.Z V N V N K K x.x.] j ; = x = 4 a W A E.0X0X0X0XQ.R.R.R.R.",
"R.R.R.Q.0X0X0X0X0X(.y.[..Xe.] M l < 0 Q y r R S t = z ^ D S S G L Z C C G Z Z } } } U ) j.) c 9 = > < 2 a  .A E.0X0X0X!.R.R.R.R.",
"R.R.R.!.0X0X0X0XeX/.|..Xk.Y n j 3 8 ; r d H [ q > 4 S L F C C C G G G G Y G A U X.&.&.*.%.[ ,.F < < < 1 u f  .T 0X0X0X!.!.R.R.R.",
"R.R.Q.0X0X0X0X0X(.|.XXe.~ n < : j # > t ^ ^ L N t 4 k N q 1 1 1 = 1 1 6 7 Z O.O._ O.o.p.I.P.k.w.F 9 < 3 = 2 / s 3.0X0X0X!.Q.R.R.",
"R.R.!.0X0X0X0XuX1X7Xk.m m < e v $ % u ^ L N 4 1 7 7 < < = 1 7 u V P I P 7 7 N } $.O.%.+.p.y.%.G.w.N < = 0 = 1 6 5 7.0X0X0X!.R.R.",
"R.Q.!.0X0X0XyX_.XXG.] ~ 9 3 : > & B ` G = , , 1 4 < < 4 S ( r.y.s.s.{. XP...V N Z } %.p.*.s.y.@.( s 4 < < 3 = , 5 T E.0X0X!.Q.R.",
"Q.0X0X0X0XqXsX%XOXj.! g < ; + 3 _ ` [ B , , , 4 3 < B @.r.#.#.#.%.a.<X5X1X Xi.' U Z } +.I.I.{.P...U s < > 3 = = 2 a =.0X0X0X!.R.",
"!.0X0X0X0XiXU.6XJ.) b < : $ % ] ` ` ] 5 2 > 9 < u I @.s.@.y.s.P.D.U.6X6X7X7X3X3XH.$.G } +.a.4X8Xs.X. .s < = ; $ & 5 a 8.0X0X!.Q.",
"0X0X0X0XyX3X[.$X) n 3 ; ; # S [ ^ ^ 7 2 = 0 < V ..o.y.y.].H.P.}.*X;X6X|.{.{. X1X1XXX$.L } +.>XHX4Xp.o.{ , $ = ; < & a T qX0X!.Q.",
"0X0X0XeXiXP.7XjX! 9 ; : $ t ^ B = 5 5 > 3 > a I ..y.{.$X].].].OX$X-XCXZXDXSXNX1X5X1X}.$.L O.p.2XGX,X*.&.i , $ ; : = u Z wX0X0X!.",
"0X0X0XyX_.1XDXZ.b ; 8 $ 3 k u * , i u e < a I U $.}.$XsX/.%X].OX#XkXnXLXUXPXZXZXBX7X Xp.O.F $.p.4X2X,X%.Z 6 # # ; < , i ~.0X0X!.",
"0X0XqXiXD.ZX^.! ; : ; < M 7 * = 1 7 9 3 N @.#.@.D.S.F.F.F.J.OXjXkXvXxXnXMXUXAXKXPXDX7X,Xr.I D O.p.a.a.P...s > $ ; 3 & 5 8.0X0X!.",
"0X0XqX_.H.jX>.g $ g ; k c 6 4 < 7 1 j , / p.@.D.$.[ <.k.J.^.pXN.pXV.gXMXMXLXIXnXAXCXNX1X:X/ D _ o.I.&.I.t.f 5 $ @ $ = 2 | 0X0X!.",
"0X0XuX6.i.v.! ; ; ; $ c 1 7 c F 7 : < u X.#.y.O._ <.z.z.,.,.l.N.c.V.-XBXkXMXUXUXLXAXZXXXP...D D O.p.+.*.[./ f = + # 3 5 P yX0X!.",
"0X0X3Xr.u.c.j # g - # l 1 7 N N , 8 1 I @.i.y._ <.z.z.x ! 1.Z.9XhXgXpX@XA.=XvXIXbXlXKXAX].4.D C P $.D.X...a / > + % g a f `.0X0X",
"0X0X3Xt.w.l.0 $ g # , h.4 u F u > 8 u ..y.H.$.<.z.>.! >.l.Z.9X9XzXzXzXmXgXA.=XhXxXbXVXAXlXH.( C u _ D.D.Z i / , + + g 4 f L.0X0X",
"0X(.g.t.j.;.l $ ; > p ! 7 1 N 4 < 9 I %.y.H._ z.>.M M z.l.-.l x m.C.m.C.zXgX&XgXvXbXlXlX].H.[ B S D T $XU i  ., # X : > D 6.0X0X",
"0XrX{.' j.! - + $ 2 a k u 1 N 1 3 4 r.%.H.D.<.z.1.1.,.1.l n m ` [ ] c.j.b.fXC.A.vXLXlX%X-X].' D K u L F.( i @., - X ; < D ..qX0X",
"0XtXy.[ c.0 ; X : 2 I 5 w 1 B 3 3 u r.y.H.K.z.1.N.M N.M z e.f. X1X|.k.,.,.9XdXv.@XbXVX-X-X$X$.I ] 1 L $.[ O./ 2 : + $ 3 S f ~.0X",
"qXiX$.J.l.% $ o l 7 @.$.G 7 F 0 4 7 #.P.}.K.^.) ,.:.Z.x ` u.,XFXGXg.u.j.1.m.fXv.+XjXJXjX-X$X$.V ] 1 L V V [ I a : + # 3 S f ).0X",
"0XuX@.x.M + # o 3 7 @.u.Y N F j q t y.i.].]./.>.n -.9X! e.e.g.HXBXr.t.z.1.l.9XaX,.v.xXlX'.$X$.V ) 4 K a _ ^ ^ J : X # 3 ^  .L.0X",
"0XuX..j.l + # + > , r.u.F ) F l k B p.H.].OXjXz.! -.9Xm.u.' W [.@.E e.N.,.! 9XN.,.! pXkXS.[.[.N ) 4 S N t.k.[ J e + : j [ g.L.0X",
"0XuX_ ] x + # + < 2 y.[ C <.F x t L y.[.].#XcXaX! M :.9Xv.e.E d d ' @X+X>.M Z.z.1.<.oXlXK.|.y.4 m 1 B N L k.( d : + g k D r.Y.0X",
"0XuX_ ] x + $ & ; > @.T F <.) x 3 ) y.i.].#XkXxXz.M -.9X9X@X'.G.G.jXcXaX-.! aX1.F.Y.oXjXk.H.y.7 b 3 B J 2 e.' z $ + h F I r.Y.0X",
"0XuXT S k # # % < 2 @.( L <.,.c l H t.[.}.#X#XhXzXM.;.:.9XfXzXmXLXJX9X-.g M.N.b ) ,.v.sX[ $.#.2 v 3 B ` t J ` < $ + ! ) @.#.).0X",
"0XyXO.d j ; @ % + 2 [ ( I [ ^.B n S [ i.;X-X#XhXxXzXfXm.l.Z.9XM.Z.l.b : x +X>.x b ,.+X^.t.@.X.3 g t t ` d 5 , # + $ ;.) y.o.~.0X",
"0X0X3.p j : # % + , v.S.O.$.OXL z n t.H..X-XjXoXoXZ.dXC.;.l.M g x x v h l.N.Y M ,.Z.aX[ y.r.a j < z N B 4 > > $ + - c.[ g.6.0X0X",
"0X0X7.d 3 ;   + o > ^ _ P %.XX/.J m [ }.;XjXkX-X=XB.V.9XC.h.;.-.j.b M ;.Z.l.1.M.Z.oXS.( s.X.t h > c B Y 3 m + $ + - B.H.,X0.0X0X",
"0X0XE.a 3 ;   o . + r G.P } {.-X<.F ^ s..XlXnXbXxXgX&XA.dXdX9Xb.h.h.b.m.! ;.1.>.z.S.( $.@.a r : 3 F ) B < a + # $ h V.|.d.).0X0X",
"0X0X0XV 4 8 +   O # & u i i s.;X-X( K ( |.*XPXIXxXnXLXhXA.C.dXdXC.b.:.-.;.,.,.J.S...I @.I t g = z ) ` r r X.# # 8 ;.oXi.).Y.0X0X",
"0X0X0XT 7 ; #   O # # 2 ( s o.4XSXK.( ^ t.*XNXKXnXkXnXIXMXzXgXA.l.,.l.l.j.z.F.4...I @.@.t l $ t H ^ ` m J u - : j 9X'.%.~.~.0X0X",
"0X0X0X3.5 1 8   O O # 3 e./ P %.<XBXs.' [ f.;XCXKXnXxXnXxXxXxXkXaX+X+X+XoXF._ ..X./ X.a j ; 3 B B B ) m 2 ; - ; M xX[.4.~.E.0X!.",
"0X0X0XE.6 a e + o * + # D @.U o.I.FXFXs.[ [  X8XDXDXKXKXKXkX#XOXOXOXK.4.$.X.a.*...I t j $ < q N 4 n z 4 < : $ 8 l.VXs.).~.0X0X!.",
"0X0X0X0XA a 3 ;   1 * + > ( r.X.p.2XHXFXI.$.[ i.5XSXDXPXDXZX;X;XK.$.$.y.p.y.X./ I t j = t c B t > , a D : - $ M hX%Xy.`.qX0X!.R.",
"!.0X0X0X7.f u 3 + + i % # 3 t.H.$.a.2X8XGX3X$.[ $.i.6XZXZX;X|.[.P.H.U.D.%.O.I a r 3 < k n c w 1 > u a 3 : $ b c.gXs.U.rX0X0X!.R.",
"!.0X0X0X0X3.W $ < X = , + = j [ S.O.&.a.4XGX7Xt._ _ [ H.;X7X7X7X XI.s.y.X.D z r < = k z N 7 7 1 2 2 3 : x b ;.v.'.@.~.0X0X0XR.R.",
"R.!.0X0X0XW.@.4 ; # + , % % & u V Z %.%.p.>XBXP.$._ L L ( ( ( @.@.@./ d z j ; < < k N F ( V 7 1 j 8 : : x m ] =X$.3.0X0X0X!.R.R.",
"R.!.0X0X0X0X6.p 3 < + + , % % * P X.p.O.$.H.D.%XK._ U D N N N t t 4 k 3 = < < k S S K F I 7 t z ~ g : : b h.B.|.O.wX0X0X!.R.R.R.",
"R.R.0X0X0X0X!.T d 0 ; + # = % # , s #.} P _ $.$.K.K.$._ L G N q q 4 9 1 q z K L z q k u a K e g g ; ; b ! x..Xp.5.0X0X0X!.R.R.R.",
"R.R.!.!.0X0X0XE.$.W 3 ; + # = % # < t V I P P _ $.].K.S.[ _ Y L C B B n ) F N k 4 j k u > > g g $ : M ! j.S.;XD.qX0X0X!.R.R.R.T.",
"R.R.R.!.0X0X0X0XE.$.D < ; # + < % % g j u u C G _ _ U _ J.'.k._ G L ) ] G q k S S t t > < g ; : : l ! ] [ [.s.~.0X0X0X!.R.R.R.T.",
"R.R.R.R.!.0X0X0X0X!.$./ 3 0 > # ; = = $ 3 n x.e.G G L Z V G Y G L U G N 4 S w.^ m z 3 : : ; : : x ~ x.G.].<X).0X0X0X!.R.R.R.T.T.",
"T.R.R.R.R.!.0X0X0X0XrXO./ 3 h ; + : < w 1 < j ] [ L ) ^ G Z Z Z U U D 4 > N H z e : 8 ; 8 8 < c ~ pX=XG.t.U.yX0X0X!.R.R.R.R.T.T.",
"T.T.R.R.R.!.!.0X0X0X0XE._ @.t j 8 $ g 3 < = < > 3 K ] ) H k 2 7 N S 0 < t $ ; 8 g 8 0 j 0 k n ~ A.-XH.4.).rX0X0X0X!.R.R.R.T.T.T.",
"T.T.T.R.R.R.R.!.0X0X0X0XE.O.@.k j g j ; ; ; < < < g l j 3 > > < = > 3 e g g g 8 j h g h n -.l.gX=X*XU.uXtX0X0X0X!.R.R.R.T.T.T.T.",
"T.T.T.T.R.R.R.R.!.0X0X0X0X!.3.f J j l h l l ; ; ; : g v v v v v b l 8 g g j g l h -.n n ) dXMXCX[.L.uX0X0X0X0X!.R.R.R.R.T.T.T.n.",
"T.T.T.T.T.R.R.R.R.0X0X0X0X0X0X5./ ( z x m ~ ~ ! 8 ; : ; ; < < < 9 j l j j l x b ! ] ] z.A.jX8X3X`.yX0X0X0X!.!.R.R.R.R.T.T.T.9.2.",
"2.T.T.T.T.T.R.R.R.R.0X0X0X0X0X0X3.( ( ^ ) ! ~ ;.m m b n c n n M M M M n Y ,.] ,.v.k.G.G..X1X`.0X0X0X0X0X!.!.R.R.R.R.T.T.T.2.2.2.",
"2.2.2.T.T.T.T.R.R.R.R.!.0X0X0X0X0XE._ I [ [ ^ S Y ,.j.l.M.Z.+XZ.N.v.N.V.+X@X+X#X%XH.t.t.%XtX0X0X0X0X0X0X!.R.R.R.R.R.T.T.2.2.2.2.",
"2.2.2.2.T.T.T.T.R.R.R.R.Q.!.0X0X0X0XuXZ a / ' [ _ ) ] ] ) [ z.J.J.OXjXVXNX3X3X}.%._ 3.Y.qX0X0X0X0X!.0X!.R.R.R.R.T.T.T.T.9.2.2.2.",
"2.2.2.2.n.T.T.T.T.R.R.R.R.Q.!.!.0X0X0XqX7.3...r.p.$.y.$.e.k.G.t.t.G.H.t.X.U U 3.W.0X0X0X0X0X0X0X!.!.R.R.R.R.R.T.T.T.T.n.2.2.2.2.",
"2.2.2.2.2.9.T.T.T.T.R.R.R.R.R.Q.!.!.0XyX0X0X8.)._.Y.L.$.y.s.[.H.H.D.5.5.7.E.qX0X0X0X0X0X0X0X0X!.Q.R.R.R.R.R.T.T.T.T.n.2.2.2.2.2.",
"2.2.2.2.2.2.2.T.T.T.T.R.R.R.R.R.R.Q.!.!.0X0X0XqXyXrX0XE.`.3X`.uXiXiXrXqX0X0X0X0X0X0X0X!.!.!.!.R.R.R.R.R.T.T.T.T.T.n.2.2.2.2.2.2.",
"2.2.2.2.2.2.2.2.T.T.T.T.T.R.R.R.R.R.R.Q.!.!.0X0X0X0X0X0X0X0X0XrX0X0X0X0X0X0X0X0X0X!.!.!.!.Q.R.R.R.R.R.T.T.T.T.T.T.2.2.2.2.2.2.2."
};
