/* XPM */
static char *a4d663d1682b48edf8a54f47a0c910cb4EgbgW9PxnVikLkr[] = {
/* columns rows colors chars-per-pixel */
"64 64 41 1 ",
"  c #3A6E7A",
". c #3D737D",
"X c #40767F",
"o c #3F7580",
"O c #417681",
"+ c #447B85",
"@ c #487E87",
"# c #477E88",
"$ c #487F89",
"% c #4C838C",
"& c #4F8790",
"* c #4F8890",
"= c #508791",
"- c #518993",
"; c #528B93",
": c #528B94",
"> c #538B94",
", c #548B95",
"< c #538C95",
"1 c #558D96",
"2 c #578F98",
"3 c #579097",
"4 c #579098",
"5 c #589099",
"6 c #5B949B",
"7 c #5C949B",
"8 c #5B959C",
"9 c #5C969C",
"0 c #5F989E",
"q c #60999F",
"w c #6199A0",
"e c #639CA2",
"r c #649DA2",
"t c #659FA4",
"y c #66A0A5",
"u c #68A1A6",
"i c #69A3A7",
"p c #69A3A8",
"a c #6AA4A8",
"s c #6CA5AA",
"d c #6EA8AC",
/* pixels */
"...ooOOOOOO++++++##################++++++OOOOOOOoo.........     ",
"..oOOOOOO+++++++#######$$#$#$$######+#+#++++OOOOOOoo........    ",
".ooOOOO++++++####$$$$$%%%%%%%%$%$$$$#####++++OOOOOOO........    ",
".oOOOO+++++###$$$%%%%%%%%%%%%%%%%%%%$$$####++++OOOOOOo......    ",
"OOOOO++++###$$$%%%%%%%%%%%%%%%%%%%%%%%%%$####++++OOOOOo........ ",
"OOOO++++###$$%%%%%%%%%%%%%%%%%%%%%%%%%%%%%$$#+#+++OOOOOo........",
"OOO+++###$$%%%%%%%%%%&&&&&&&&&&&&%%%%%%%%%%%$$##++++OOOo........",
"OO+++###$$$%%%%%%&&&==------------=&&%%%%%%%%$$###+++OOOo.......",
"OO++##$$$%%%%%%&&==-------::---------=&&%%%%%%%$###+++OOOo......",
"O++##$$%%%%%%&&=----:::11111111:<::-----&&%%%%%%$$##++OOOOo.....",
"++###$%%%%%&&&---::11111111111111111:----&&%%%%%%$##+++OOOOo....",
"++#$$%%%%%%&=--:<111111144455121111111:----&%%%%%%$##+++OOOo....",
"+##$%%%%%%&---,1111145555555555555431111:---&%%%%%$$##+++OOOoo..",
"##$%%%%%%&---<111445555555555555555552111::--&%%%%%$###++OOOOo..",
"#$$%%%%%&---<11125555678999999896555554111<---&%%%%%$###++OOOOO.",
"#$%%%%%%=-:<11255556999999009999999655551111:--&%%%%%$##++OOOOo.",
"#%%%%%&=-::1145555999999000wqq000999965554111:--&%%%%$$##++OOOOo",
"$%%%%%&--:134555899900qqwwwwwwwwwq09997555411:--=&%%%%$###+OOOOO",
"%%%%%&--<11155599990wwwwweweeeewwwwq9996655511:--=%%%%%$##++OOOO",
"%%%%&--:1114559990qwwweeerrtttrreewwq099765531<:--%%%%%$###++OOO",
"%%%%---111455699qqwweerrttttttttrrewwq099655411<---%%%%%$##+++OO",
"%%%&--:113556990qweerrttyyyyyyyttrrewww099655511:--&%%%%$##+++OO",
"%%%=--111555990qwwrrttyyuuuuuuyyyttrewwq99955521<--&%%%%$##+++OO",
"%%&---11555699qwwrrtyyuupupupuuuyyttreww099955311:--&%%%%$##++OO",
"%%&--111556990wwertyyuupaaaaappuuuyttreww099654111--&%%%%$##++OO",
"%%--:11355990qwerrtyuppaaaaaaaaapuyyyrewwq99755411:-*%%%%@##++OO",
"%&--11155699qweetyyuppaassaaaaaaapuuytreww09965411:--&%%%$##++OO",
"%&--11355990wwertyuupaassssssssaapuuyttrww00965511<--%%%%%###+OO",
"%*--11456990wwertyuuaaassssssssaaaauyytrewq09855311--&%%%%@##++O",
"&---1155699qwwrtyyupaassssssssssaaapuytteww09965311<--%%%%@##++O",
"%--<1355699wwertyuuaasssssddddsssaapuytrrww09955411<-=%%%%%$#++O",
"&--11355990wwertyuuaassssdddddddsaapuyytrew09965411:--%%%%%###+O",
"&--11355990wwrtyuupaasssddddddddsaaauyytrwwq9965411<--%%%%%###++",
"&--11355790weetyuppasssdddddddddssaauyytrew09955411<--%%%%%$##++",
"&--<1356990wertyuppasssdddddddssssapuuytrew09965411<--%%%%%%##++",
"&--11356990wertyypaasssdddddddssssapuyytrew09965411:--%%%%%$##+O",
"&--11155790wertyuupassssdddddssssaapuyytrew09965411:--%%%%%@##+O",
"&--<1155690wwetyuupasssssddddsssaaapuytteew09965411---%%%%%###+O",
"%--11155699qwertyuaaaassssssddssaaauuyyrewq09655111---%%%%$##++O",
"%=-:11556990wwetyuuaaaassssssssaaapuuytrewq0965411<--*%%%%$##++O",
"%&--11356990qweryuupaaaasssssssaaapuyytrew09965411<--%%%%%$##+++",
"%&--<1355799qwertyuupaaassssssaaappuytteww0965541<---%%%%%@###++",
"%%--111556790qwrtyyuupaaasaassaapuuyttrew09965511<--&%%%%$###+OO",
"%%---115556990wertyyupaaaaaaaappuuyytreww09955511<--%%%%%$##++OO",
"%%*--113556990wwrrtyuuupaappppuuuyytreww09965531<--&%%%%$@##+OOO",
"%%%--<11455699qwertyyuuuuuuuuuuyyytreewq99755331:--&%%%%@##++OOO",
"%%%--<113556790wwerttyyuyyuyyyyyttreewq099655311--*%%%%$##++OOOO",
"%%%*--1113556990wwerrtttyyyttttrrrewww009655431<--&%%%%$##++OOOO",
"%%%%*--1113556900wwwerrrrrrrrrrreewww0999555111---%%%%%##++OOOOO",
"%%%%%--:1113557900wwwweeerreeeeewwwq099755511<---%%%%%$###OOOOOO",
"$%%%%&--:1115556900qqwwwwwewwwwwwqq0996555111<--&%%%%$###OOOOOo.",
"$%%%%%&---11135669990qqqwqqwqqq0009996555111<--=%%%%%$##+OOOOO..",
"#$%%%%%=--<1113566799990000q009999975554111:---%%%%%%##+OOOOO...",
"##$%%%%%&---111355666999999999997665554111<---%%%%%%@##+OOOo....",
"+#@$%%%%%=---111355555566679766555555311<---*%%%%%%$##+OOOOX....",
"+###$%%%%%%---:1111455555555555555431111---&%%%%%%$##+OOOOO.....",
"O+###$%%%%%%=---:111133455555553331111:---&%%%%%%$##+OOOOoX.....",
"OO++##$%%%%%%&----111111113113111111-----%%%%%%%@##++OOOX.......",
"OOO+##@$%%%%%%%&----:<<111111111<:-----&%%%%%%%$##++OOOO....... ",
"OOOO++#$$%%%%%%%&&-------:<<-:-------&%%%%%%%$$$#++OOOO........ ",
".OOOO+###$$%%%%%%%%&&=------------&&%%%%%%%%$####+OOOO........  ",
"..OOOO++###@$%%%%%%%%%%&&&&&&&&%%%%%%%%%%%$$###++OOOOo.......   ",
"...oOOOO++###$$%%%%%%%%%%%%%%%%%%%%%%%%%%$$###++OOOO........    ",
"....oOOOO++###$$$%%%%%%%%%%%%%%%%%%%%%%$$$##++OOOOOo.......     "
};
