/* XPM */
static char *d249725f230547da91bac42393bace11[] = {
/* columns rows colors chars-per-pixel */
"64 64 237 2 ",
"   c #36070F",
".  c #3D030B",
"X  c #2C0F13",
"o  c #380B14",
"O  c #2B1719",
"+  c #36161B",
"@  c #261D25",
"#  c #321C21",
"$  c #28242B",
"%  c #362629",
"&  c #282731",
"*  c #2D2C35",
"=  c #322D33",
"-  c #322F39",
";  c #2D3339",
":  c #383436",
">  c #35333A",
",  c #39363C",
"<  c #3A383E",
"1  c #45010B",
"2  c #4B020B",
"3  c #44080F",
"4  c #54020B",
"5  c #5C030B",
"6  c #59080E",
"7  c #460911",
"8  c #501217",
"9  c #64020B",
"0  c #69010B",
"q  c #720910",
"w  c #68151A",
"e  c #4B1F27",
"r  c #731D22",
"t  c #442D26",
"y  c #48342B",
"u  c #56322C",
"i  c #473936",
"p  c #573B33",
"a  c #6B2F2C",
"s  c #792428",
"d  c #564234",
"f  c #66432C",
"g  c #744A2D",
"h  c #7D522D",
"j  c #684836",
"k  c #714D33",
"l  c #7A5333",
"z  c #7C5839",
"x  c #2D3D45",
"c  c #343A42",
"v  c #3D3B42",
"b  c #423E44",
"n  c #423F48",
"m  c #583B41",
"M  c #633F45",
"N  c #2C4148",
"B  c #354349",
"V  c #354D54",
"C  c #38555C",
"Z  c #395C63",
"A  c #3F646C",
"S  c #3A6B76",
"D  c #396E79",
"F  c #3D737D",
"G  c #454749",
"H  c #44454B",
"J  c #574948",
"K  c #57564B",
"L  c #484B54",
"P  c #524F58",
"I  c #46575A",
"U  c #57575B",
"Y  c #6A564A",
"T  c #765A45",
"R  c #675052",
"E  c #4E635F",
"W  c #56635E",
"Q  c #79654C",
"!  c #726D5A",
"~  c #78725C",
"^  c #455B64",
"/  c #545A67",
"(  c #6D5E61",
")  c #45656D",
"_  c #486569",
"`  c #5C636D",
"'  c #556869",
"]  c #55716E",
"[  c #436C74",
"{  c #496C76",
"}  c #596974",
"|  c #4C7377",
" . c #43747D",
".. c #4B757B",
"X. c #537273",
"o. c #58787A",
"O. c #6D6A6F",
"+. c #667065",
"@. c #767663",
"#. c #646772",
"$. c #717472",
"%. c #73747C",
"&. c #880309",
"*. c #950208",
"=. c #8D1418",
"-. c #A60409",
";. c #B80207",
":. c #B50309",
">. c #A21011",
",. c #81262C",
"<. c #81552F",
"1. c #855936",
"2. c #8A5C35",
"3. c #845B39",
"4. c #8F6136",
"5. c #8C623B",
"6. c #916137",
"7. c #93653B",
"8. c #96693C",
"9. c #996A3C",
"0. c #9F703F",
"q. c #805845",
"w. c #8C6645",
"e. c #936B43",
"r. c #976B43",
"t. c #9A7247",
"y. c #886958",
"u. c #956C56",
"i. c #8B765A",
"p. c #997558",
"a. c #A57747",
"s. c #A07F56",
"d. c #967769",
"f. c #8D7670",
"g. c #A07664",
"h. c #60817F",
"j. c #AE8453",
"k. c #928360",
"l. c #AB836D",
"z. c #A88577",
"x. c #B48A77",
"c. c #C0955E",
"v. c #3F7580",
"b. c #3A7B88",
"n. c #417681",
"m. c #4B7787",
"M. c #447B85",
"N. c #4B7C85",
"B. c #477E88",
"V. c #487F89",
"C. c #587C86",
"Z. c #677982",
"A. c #787880",
"S. c #3D8A99",
"D. c #3EA6B6",
"F. c #49808A",
"G. c #49818B",
"H. c #4A818B",
"J. c #4B828C",
"K. c #4C838C",
"L. c #4C838D",
"P. c #4D848E",
"I. c #5C8385",
"U. c #53838B",
"Y. c #57868A",
"T. c #56948F",
"R. c #4E8590",
"E. c #4F8790",
"W. c #468997",
"Q. c #508791",
"!. c #518992",
"~. c #538B94",
"^. c #5A8A94",
"/. c #579097",
"(. c #5C9297",
"). c #579098",
"_. c #5B949B",
"`. c #5E989E",
"'. c #6D8A8C",
"]. c #74898A",
"[. c #648C96",
"{. c #639499",
"}. c #619A9F",
"|. c #4597A6",
" X c #5799A5",
".X c #6D97A0",
"XX c #639CA1",
"oX c #709BA5",
"OX c #47A9B6",
"+X c #54A8B2",
"@X c #66A1A6",
"#X c #67A5AB",
"$X c #73ACAF",
"%X c #38BDCA",
"&X c #60BAC3",
"*X c #3BC9D5",
"=X c #6BCBD1",
"-X c #59DCE8",
";X c #4CE7F0",
":X c #73EBF4",
">X c #8E918A",
",X c #AF938B",
"<X c #B89689",
"1X c #8FA399",
"2X c #B3A49A",
"3X c #97B0AE",
"4X c #B5B2AD",
"5X c #C39B88",
"6X c #C9A79A",
"7X c #D2A796",
"8X c #CCABA1",
"9X c #C8B2A9",
"0X c #D9B6A9",
"qX c #DBBDB3",
"wX c #E4BCAC",
"eX c #E1BEB2",
"rX c #DBC2B8",
"tX c #EEC5B5",
"yX c #E9C6B8",
"uX c #F0C6B6",
"iX c #F0C8B7",
"pX c #F2CBBB",
"aX c #8DDBDF",
"sX c #B0D3CF",
"dX c #8FE8EF",
"fX c #AAF6FB",
"gX c #D3D2CB",
"hX c #EACCC1",
"jX c #F4CFC2",
"kX c #EBD6CB",
"lX c #F6D1C4",
"zX c #F5D6CB",
"xX c #F8D5C8",
"cX c #F8D6CA",
"vX c #FAD8CE",
"bX c #FADBD0",
"nX c #D3F9FC",
/* pixels */
"F F F F F F F v.n.n.n.n.M.M.M.M.B.B.B.B.V.V.H.H.H.H.H.H.J.J.J.L.J.J.J.J.J.H.H.H.H.H.V.V.V.B.B.B.M.M.M.M.n.n.n.n.n.v.F F F F F F ",
"F F F F F v.v.n.n.n.n.M.M.M.M.B.B.B.V.V.V.H.H.H.J.J.L.L.P.P.P.P.P.P.P.P.P.L.L.J.J.J.J.H.H.V.V.B.B.B.M.M.M.M.n.n.n.n.v.F F F F F ",
"F F F F F v.n.n.n.n.M.M.M.B.B.B.V.V.H.H.H.J.J.L.P.P.P.P.P.P.P.P.R.P.L._ P.P.P.P.P.L.L.L.J.H.H.V.V.V.B.B.M.M.M.n.n.n.v.F F F F F ",
"F F F F F v.n.n.n.M.M.M.B.B.B.V.V.H.H.J.L.L.P.P.P.R.R.R.Q.P.[ !.Q.N.~ @.!.R.L.X...P.P.P.L.H.H.H.H.V.V.B.B.M.M.M.n.n.n.v.F F F F ",
"F F F F n.n.n.n.M.M.M.B.B.B.V.V.H.J.J.L.P.P.R.R.R.Q.!.!.Q.+.@...+.i.a.@.| ] ~ s.| P.R.P.P.P.L.L.J.H.H.V.B.B.M.M.M.n.n.n.n.F F F ",
"F F F F n.n.n.n.M.M.B.B.V.V.H.H.L.L.P.P.R.R.Q.!.!.!.!.N.~ c.u.t.0.9.a.w.a.a.9.e.U L.Q.P.P.P.P.P.L.J.H.V.V.B.B.B.M.M.n.n.n.v.F F ",
"F F F n.n.n.n.M.M.B.B.V.V.H.J.J.P.P.P.R.Q.!.!.!.!.o.@.k.j.0.9.8.9.9.9.9.9.9.9.a.p.@.@.~ L R.R.P.P.L.L.H.H.V.B.B.M.M.n.n.n.n.n.F ",
"F F n.n.n.n.n.M.B.B.V.V.H.J.J.L.P.R.R.!.!.~.~.N.@.j.a.9.9.9.9.9.9.9.9.9.9.9.9.9.9.9.r.r.T ..J.Q.R.P.L.J.H.H.V.B.B.M.M.M.n.n.n.v.",
"F v.n.n.n.n.M.M.B.V.V.H.H.L.P.P.R.Q.!.!.!.N.U.i.j.9.9.9.9.9.7.5.9.9.9.9.9.9.5.9.9.9.9.9.z Q N.!.R.P.P.L.J.H.V.V.B.B.M.M.n.n.n.n.",
"F n.n.n.n.n.M.B.B.V.H.H.J.P.P.R.R.!.!.~...~ ~ a.9.9.9.9.9.5.l 3.9.9.9.9.9.3.u 7.9.8.9.9.a.w.N.!.!.R.P.P.L.J.H.V.B.B.M.M.M.n.n.n.",
"v.n.n.n.n.M.M.B.V.H.H.J.L.P.R.R.!.!.~.~.X.t.9.9.9.9.9.9.7.7.7.8.9.9.9.9.8.8.1.8.9.9.9.9.9.r.' X.| !.R.P.P.L.J.H.V.B.B.M.M.M.n.n.",
"n.n.n.n.n.M.B.B.V.H.H.L.P.P.R.!.!.~.!.U.X.r.9.9.9.9.9.9.9.9.8.8.9.9.9.9.9.9.8.9.9.9.9.9.9.9.8.j.X.!.!.R.P.P.L.H.H.V.B.B.M.M.n.n.",
"n.n.n.n.M.M.B.V.H.H.J.P.P.R.!.!.~.~._ Q r.9.9.9.9.9.9.9.9.7.j 5.9.9.9.9.9.8.7.9.9.9.9.9.9.9.9.j.X.~.!.!.R.P.P.J.H.V.V.B.B.M.n.n.",
"n.n.n.M.M.B.B.V.H.J.P.P.R.!.!.!.~.~.U.p 5.9.9.9.9.9.9.4.2.3.k l 9.8.z 7.9.8.f l 5.9.9.9.9.9.9.a.@.~.~.!.!.R.P.L.H.H.V.B.B.B.M.n.",
"n.n.n.M.M.B.V.H.J.L.P.R.!.!.~.~.~.~.).W 9.9.9.9.9.9.9.9.9.7.5.7.9.7.j l 9.9.5.8.7.9.9.9.9.9.9.9.i.~.~.~.!.Q.P.P.J.H.H.V.B.B.M.M.",
"n.n.M.M.B.B.V.H.L.P.R.Q.!.!.~.~.~.).~.T 9.9.9.9.9.<.g <.9.9.9.9.9.8.8.8.9.9.9.9.2.h 7.9.9.9.9.8.p.U.~.~.!.!.R.P.P.H.H.V.B.B.M.M.",
"n.M.M.B.B.V.H.J.P.P.!.!.!.~.~.~.).).] 7.9.9.9.9.<.d.wX<Xq.3.8.9.9.9.9.9.9.8.2.p.7X7X1.8.9.9.9.9.t.I.~.~.~.!.!.P.P.L.H.H.B.B.M.M.",
"M.M.B.B.B.V.H.L.P.P.!.!.~.~.~.).).| z 2.9.9.9.4.u.tXuXtXtX6Xp.5.7.8.8.5.w.l.0XuXuXuX0X3.9.9.9.6.7.+.~.~.~.!.!.!.P.L.H.H.V.B.B.M.",
"M.M.B.B.V.H.H.L.P.!.!.!.~.~.).).).| E e.9.9.9.q.wXtXuXuXuXuXtX0X5Xx.x.7XwXuXuXuXuXuXtX5X2.9.9.8.z U U.~.~.~.!.!.P.P.J.H.V.B.B.M.",
"n.M.B.B.H.H.J.P.P.R.!.!.~.~.).).).).I.t.9.9.2.8XuXuXuXiXuXuXuXuXiXiXiXiXuXuXiXiXuXuXuXtXu.9.9.9.e.I.).~.~.~.~.!.R.P.J.H.H.B.B.B.",
"M.B.B.V.H.H.L.P.P.!.!.~.~.~.).)._._.o.t.9.9.w.iXiXiXiXiXiXiXiXiXiXiXiXiXiXiXiXiXuXuXuXiX<X4.9.9.e.I.)./.~.~.~.!.R.P.P.H.H.V.B.B.",
"M.B.B.V.H.H.L.P.R.!.!.~.~.~.).).`.`.I.t.9.9.w.iXpXiXiXiXiXiXiXiXiXiXpXpXpXpXiXiXiXiXiXiXx.9.9.9.w.Y.).).~.~.!.!.!.P.P.J.H.V.B.B.",
"M.B.V.H.H.L.P.P.R.!.!.~.~.).)._.`.`.I.3.2.7.7.0XiXpXpXpXpXpXpXpXpXpXpXpXpXpXpXpXpXiXiXpXp.9.6.2.T !.).).~.~.~.!.!.R.P.J.H.V.V.B.",
"B.B.B.H.H.L.P.P.!.!.~.~.~.).).`.`.`.^.w.p f 7.7XpXpXpXpXpXpXpXpXpXpXpXpXpXpXpXpXpXpXpXpXp.7.u f Q ~._.)./.~.~.!.!.P.P.J.H.H.V.B.",
"B.B.V.H.H.L.P.R.!.!.~.~./.).).`.`.`.(.T g l 3.wXpXpXjXjXjXjXjXjXjXjXjXjXjXjXjXpXpXpXpXpXl.h 1.g Y _._.).).~.~.^.!.P.P.L.H.H.V.B.",
"B.B.V.H.H.L.P.R.!.!.~./.).)._.`.`.}._.Q l l p.eX<X6XyXlXjXjXjXjXjXjXjXjXjXjXjXlXlXqX<X6X6Xz f z ! `._.).).~.~.~.!.R.P.P.H.H.V.B.",
"B.V.V.H.H.L.P.R.!.!.~./.).)._.`.`.}.XX+.9.8.5Xd.T p Y d.0XlXxXlXlXlXlXlXlXxXhX<Xy.j j y.<Xw.8.9.' `._.).).~.~.~.!.!.P.P.H.H.V.B.",
"B.B.H.H.H.P.P.Q.!.!.~.~.).)._.`.`.}.XXo.8.r.tX0X( v % p f T y.0XlXlXlXlXx.y.j f d f.9XyXkX1X].k.{.XX_.).)./.~.~.!.!.P.P.J.H.V.B.",
"B.V.V.H.J.P.P.R.!.~.~.~.).)._.`.}.XXXXI.i.w.tXf.U P H v : y p z.xXxXzXyXT d E I.$X&X*X$XkXz.@.'.$XXX_.).)./.~.~.!.!.P.P.H.H.H.B.",
"B.B.V.H.J.L.P.R.!.~.~.~.).)._.`.}.XX{.4XzX,X6X( P P H H n v , f.xXxXxXzX3X=XfXnXnXfX;XsXzXQ 4XgXI.`._.).)./.~.~.!.!.P.P.H.H.V.V.",
"B.B.V.H.H.P.P.Q.!.!.~.~.).)._.`.`.XX[.rX8X6X,X>Xv v H n v v > f.xXxXxXzX=X:XfXnXfX:XaXgXsX1X4XgX3X@X_.).)./.~.~.!.!.P.P.H.H.H.B.",
"B.B.V.H.H.P.P.R.!.!.~.~./.)._.`.`.}.{.9XeXd.d.yXO.v v v v v : 0XxXxXxXzXkXsXdXdXdXsXkXzXf.,X<XkX1X$X_.).).~.~.~.!.!.P.P.H.H.V.B.",
"B.B.V.H.H.L.P.R.!.!.~.~./.)._.`.}.}._.>X6XeX<X<XzX,XU b i ( 0XxXvXvXvXxXvXzXzXkXzXxXvXqXT eX,XyXI.`._.).).~.~.~.!.!.P.P.H.H.V.B.",
"B.B.V.H.H.L.P.P.!.!.~.~./.)._.`.@XI.I X.2XqXeXz 0XvXbXvXvXbXvXlXyXqXqXhXvXvXvXvXvXvXkXy.z.wX8X>X`.`.).).~.~.~.!.!.!.P.P.H.H.V.B.",
"B.B.V.H.H.L.P.P.!.!.~.~./.)._.`.#XC.%.%.' ].].K w.yXvXvXvXbXqXu.w.5.w.w.,XbXbXvXvXzXd.k $.>X].(.`.`.).).~.~.~.!.!.R.P.P.H.H.V.B.",
"M.B.V.V.H.J.P.P.R.~.!.~.~.~.W K Z.^.'.oX%.o.XXXXK w.0X0X8Xy.u.r.u.y.g.t.3.f.d.9XhXd.l ' XXXX}.`.`._.).).~.~.!.!.!.P.P.J.H.H.V.B.",
"M.B.B.V.H.H.L.P.P.`.!...L H J d i C U.#X.X} {.@XXXo.Y z 7.9.9.x.<Xd.z.z.e.8.7.3.k K o.XXXXXX`.`.`._.).).~.~.!.!.!.P.P.J.H.V.B.B.",
"M.B.B.V.S Z ) _ _ | } #.U i : y : , ^ X.].%.I.@X@X@X@XI.U p <.7.2.8.5.2.4.h f K o.}.XXXXXXXX`.`._._.)./.~.~.!.!.R.P.L.H.H.V.B.B.",
"M.M.B.B.S #.O.%.%.Z.} H H b y t i H ^ ..U U X.XX@X#X=X#Xo.` L O y j j O : U ` Y.{.XXXXXXXX`.`.`._.).).~.~.!.!.!.P.P.J.H.H.V.B.B.",
"M.M.B.B.M.` A.%.L H U.H v < < % i !.{ [ ) C.`.XXXX#X#X| C.[.C.v : ( b > ` [.Q.> ; _ }.XX}.`.`._._.)./.~.~.!.!.R.P.P.H.H.V.B.B.M.",
"n.M.M.B.B._ A.A.U | M.^ H v L H d }.C  X#XXXXXXXXXXXY.; I ^.OXS.^ H / U. XC.N.) B i ( ^.`.`.`._.).).~.~.~.!.!.R.P.J.H.V.B.B.B.M.",
"n.n.M.B.B.n.` A.%.H .._ , H P.X.I < ^._.`.XXXXXXXXXXC , - ~.aX:XS./ H.=X*XQ.& C  .J.=.=.R C./.).).~.~.~.~.!.R.P.P.H.H.V.B.B.B.n.",
"n.n.M.B.B.V.[ #.%.I [ [ H H I H y y I `.`.`.`.}.^.) > > , m.=X-XB./ b.fX-X{ $ > [ C + *.:.>.,.J ` N.!.!.!.!.P.P.L.H.H.B.B.B.M.n.",
"n.n.n.M.B.B.V.[ #.Z.[.) H.B H H | I T.U.).`.U.V > - > > L / W.R.` ` C.S.|.} > & , v ,   9 -.;.;.:.-.=.M X.L.P.P.J.H.B.B.B.M.n.n.",
"n.n.n.M.M.B.V.V.[ ` }.%.U.R.Z U.~.U.h.: ' h.< v , , > ; / Q.&XD.` / V.OXOXC.} $ $ > > % . 1 5 &.-.:.;.:.-.s / H.H.H.B.B.B.n.n.n.",
"n.n.n.n.M.B.B.V.H.M.) O.[. X[ !.~. X| % ,Xf.< > v - > N @XW.=X%X} } |.fX*X X{.| % = > , # 2 1 1 2 9 &.*.-.:.-.J H.V.B.M.M.n.n.n.",
"n.n.n.n.M.M.B.B.V.H.H. ._ C. .!.~.~.!.v f.J R X X X O N.^.} |.| #.#.M.D.W.[.Z.n 8 # > , , 2 5 2 2 1 . 4 q &.*.-.I B.B.M.n.n.n.n.",
"F n.n.n.M.M.M.B.B.V.H.L.P.V.L.!.!.!.~.o.,Xy.t e i e 8 b #.C.=X|.P / H.OX XC.#., 5 4 $ < v + 0 9 9 4 2 1 1 5 &.*.r  .B.M.n.n.n.F ",
"F F n.n.n.n.M.B.B.V.V.H.L.P.P.Q.!.!.N.s >.w % J _ H 7 + I. X+X|./ }  X:X+X^.#.v 2 0 2 = = J 9 0 0 0 9 2 1 1 5 &.&.I M.n.n.n.n.F ",
"F F v.n.n.n.n.M.B.B.V.H.H.J.P.P.P...=.;.-.4 % Y.] H t % V ) L / / / { b.{ ^ < >   9 6 qXeXhXa 0 0 0 9 2 1 # , q &.m n.n.n.n.F F ",
"F F F F n.n.n.n.M.M.B.V.V.H.J.P.V.s ;.-.q 1 J m X.t + = v < > > v , , , , > v < # 5 5 ,XrX8Xa 0 0 0 9 1 %  .B.u &.p n.n.n.n.F F ",
"F F F F F n.n.n.n.M.B.B.V.V.H.H.U :.:.*.2 2 0 w r 5   , v < v - @ # # = , v v v = 1 0 5 8 6 0 0 0 0 9 1 Z B.B.L &.H n.n.v.v.F F ",
"F F F F F F n.n.n.n.M.B.B.V.H.V.a :.-.q 1 4 0 0 0 5 + v , > , $ . 1 1   , > , v >   9 0 0 0 0 0 0 0 5 +  .B.M.A w A n.F F F F F ",
"F F F F F F F n.n.n.n.M.B.B.B.N.r ;.*.0 o 1 9 0 0 4 % v v , >   1 1 1 1 X > , v v + 9 0 0 0 0 0 0 0 4 , M.B.M.S C n.F F F F F F ",
"D F F F F F F F n.n.n.n.M.M.B.M.s :.&.w N.C 7 0 0 3 - , v v $ . 1 1 1 1 . * v v v = 7 0 0 0 0 0 0 9 o [ M.M.n.n.n.n.F F F F F F ",
"D F F F F F F F F n.n.n.n.M.M.B.^ =.&.w N.H.I 6 0 3 v , < - @   1 1 1 1 . $ , > > < + 5 9 0 0 0 9 e A M.M.n.n.n.v.F F F F F F F ",
"D D F F F F F F F F v.n.n.n.n.M.M.[ u 9 { V.V.) t + v v v * x  .B . 1 1 1 @ > v v v B ) I H b H I  .M.n.n.n.n.n.F F F F F F F F ",
"D D D D F F F F F F F n.n.n.n.M.M.M.M.) [ B.V.V. .c < < v * C H.H.V o 3 o @ > v v v B V.B.B.B.B.M.M.n.n.n.n.n.F F F F F F F F D ",
"D D D D D F F F F F F F n.n.n.n.n.M.M.M.M.B.B.M.B v v , > * C H.H.H. .[ [ C - v , v B B.B.B.M.M.M.n.n.n.n.n.F F F F F F F D D D ",
"D D D D D D F F F F F F F v.v.n.n.n.M.M.M.M.M.C v v v v > * Z V.V.V.V.V.V.C > < < v ,  .M.M.M.n.n.n.n.n.v.F F F F F F F D D D D ",
"S D D D D D D F F F F F F F F n.n.n.n.n.n.n.M.Z < v v , * N n.B.B.B.B.B.B.V > v v v v C n.n.n.n.n.n.n.F F F F F F F D D D D D D ",
"S S D D D D D D D F F F F F F F F F n.n.n.n.n.n.C x ; x Z n.B.B.M.M.M.M.M.V * v v v < Z n.n.n.n.v.v.F F F F F F F D D D D D D D ",
"S S S D D D D D D D F F F F F F v.F F v.n.n.n.n.n.n.n.n.n.n.n.M.M.n.n.n.n. .N ; c B Z n.v.v.v.v.F F F F F F F F D D D D D D D S ",
"S S D D D D D D D D D F F F F F F F F F F v.n.n.n.n.n.n.n.n.n.n.n.n.n.n.n.n.n.n.n.n.n.v.v.F F F F F F F F F F D D D D D D D D S "
};
