/* XPM */
static char *_c171b3f5e374a20bd31809baf05cf10[] = {
/* columns rows colors chars-per-pixel */
"64 64 52 1 ",
"  c #020303",
". c #060807",
"X c #050608",
"o c #060608",
"O c #080708",
"+ c #08070B",
"@ c #030908",
"# c #03080A",
"$ c #070809",
"% c #07080C",
"& c #070C0F",
"* c #090808",
"= c #08080A",
"- c #0B0B0B",
"; c #0B0B0C",
": c #0C0B0D",
"> c #0B0C0E",
", c #0C0C0C",
"< c #0D0E0F",
"1 c #0E100F",
"2 c #0B0E13",
"3 c #0F0F11",
"4 c #0E1214",
"5 c #0F1215",
"6 c #101010",
"7 c #111113",
"8 c #121214",
"9 c #111617",
"0 c #151417",
"q c #13161B",
"w c #151718",
"e c #14161A",
"r c #13181C",
"t c #181C1E",
"y c #171E20",
"u c #1A1C20",
"i c #1C2120",
"p c #1C2225",
"a c #1D2527",
"s c #222426",
"d c #212428",
"f c #252B2D",
"g c #292E2F",
"h c #2C2F32",
"j c #2C3535",
"k c #2E3839",
"l c #353B3C",
"z c #3C4545",
"x c #4B5858",
"c c #5C6A68",
"v c #6C7876",
"b c #818E8C",
/* pixels */
"3XXXX X   X<X =7XXX <   X=   <=X X  X =    XX+X=             X X",
"7X XX X=   XXXXX          ==   X$;  XX     $                    ",
">   = X X  X XXXX0=X = X<    X; X=< X  =<    X        X         ",
"=XX===  <=  X X.     XX. X= ==X X     .    XXX  X     X       X ",
"X<   =XXX X   X  =XX     X=X =X X       X   X       X           ",
"=;  XX<=       X =;       XXXX X  XX         X        X  X =    ",
"X   = XX =   XX=XX;X=   XX    $X   X     =X =X     X            ",
" XXX     X$  X   X;$ =  X$   ==X     X  XXX       =X    X   =   ",
"<;7$X =XX XXX = =;X X=  .XX  X7  XX                             ",
"X= XXXX < =  XX X = <   X=    X  XX                     X       ",
"=:XXXX  = XX  X   = =    ;X   .. X=    X    X   X  X            ",
"=3XX$X= X  X   XXX+     X=X  X  X         X    $   X            ",
" =X=<XX=X  XX<X<==X    XXX =X     =  =         X   =    X       ",
" ==X X X<   XX ;<   X X=    =X    X=   X   =      X             ",
"X=X7  X=>X  X  XXXX      X  X    XX    3X<X+ X         XX    X  ",
";+==<==      =X=XXX     X=< .  7X=  =X   X XX= =       X        ",
"=X+X= =       =X.        =XX  X=<     =  =        #3X           ",
"X<; XXX X< XX = X     X: = =  =X            XX     ;X     XX $  ",
"X =  X=X XXX=XX  =<   X       X =.XX       .== ;X##eXXXX     X  ",
"  XXXX<8=X=X  X X=    X  X X XX  XX X  =$X=;; %X%##i>$X     X   ",
" X== X;X . $X<   XX X=< =XX7X=X X =   <=   =X   %22hq2;# X      ",
"X$X8X  = X X     =X.      ===XX;X =   X        $&2ylar2%$#XX=   ",
"XX==X =X=   X  =    XX    =X   X              ;34ukvxft93%     =",
"XXX$      X X>  .   XX X XX    XXX  = XX3 X  X9edhzbcjse4%  X  X",
"=<    X= X XX== X  X X  =  . ==     X   =      #%4pzjq2%#  X  $.",
";>XX  X  X$< =XX XX= =. < XX4.<X       >;   X  #%>4gt2%#        ",
"=<>;= =    = <XX= X$      XXX$ $            X   #%2u9%#%     X  ",
"==XXX<X  X .X0 X  XX=X X.   X          <$ XX     X3e2# #X   XX  ",
"=  X$XX X == <=   X  X ==  XX X  X X   <XXX X<    #3%#%     XX  ",
"=< X= X < X  X        X=;   =X =<X   .   X$ X<     2X##         ",
" < X X = XXX   ==    X ==  X==  <X X   X        .  =  X =    X; ",
" >X$   X = X $ ==   XX =0=   ====   X   X =           X   =  >  ",
" =   3XX = ==  X   XX=;X==  X<. X  = ==   X=        .      X X  ",
" ==       X=XX   =X= X    X==<==  1  ==  XX         XX=         ",
" = X=.<X   X;  = X= XX  X =<<    .$   X            X X=   X    =",
"X= ===XX =  X  XXXXX;<X = ;=X .   .X=X= XX  X   XX==  =  X=     ",
"   XX+X=X=X3; ==      XX= XXX==; X  X  XX     X X    X          ",
"== X<=3XXX;X==3=. XXX  X= XX=3=X=XXXX      XX=       =  X  X  X ",
"<XX=XXXXX=  ;X; =      <XX  =    .            X   X             ",
"  ==<<X=XX  =X    . XXX= XXX$X =XX=XX  = X  X  X    X           ",
"X=<; <X     XX  X =X  X=X   = X=XXX XXX=                   = X  ",
"= =  X=X$XX X7    ==  X$  = XX  = X X =      X=    .       =    ",
"3=<X  X$= =XXXX=   <<X.  XXX   .X              =  X.       X  X=",
"7 X=X  $=XXX+X7X.XX <  = +    XX=X  X     ==   <   =X  <X    XXX",
"; X =X X< X;   X XX  ==XX   ;X XX X  ==                        X",
" X.==XX     =    X X   XX   X=                X      .          ",
" X ;;3>>  =  X=XX   XX   X=X X==X     =   X   X      =       X X",
"  X$ XX X =  XX   == $X=     X7=XX  X  X  .=                X.  ",
" <<X.       XXX   XX   X X $= X.X<X      XX<..                  ",
" X   77. XXXXXX  ===3 XX   X   XXX      .X>X  XXX    XX         ",
" =< X=  =XXXXX<   = XXX  : X X1X     XX <X =          ==        ",
"XX X X;XX    =; =  X X     X= =X  X        X         X          ",
"    = XX= X X;X   X$  XX=   X<    =X                     X=   $ ",
"XX X        X=X==         =X  .=X  XXX    XX   .       X   X    ",
"=X=XX <   =XX X<   =  X     X .XX =    XXX X  X   X            X",
"XX;=X X  XX=<.XX ==      X X  X $<<   < X    ==  XX   X     =   ",
"<XXXX;= =XX  X=X  XX     XX  =XX$  XX =XXX=       =           $ ",
" X$XXX =  =   < X=<X1 X   3 === X.= X XXX     XX X        =X    ",
"XX<;X  =;   X   X<X   X.  X=X     <=< XX>X    =  X        =X    ",
"<=; <X  XX.  X3XX       =XX=   X  .  XX X;X       X=      +     ",
"=X<X==<XX X  ; XX   XXX  X X . X      XX X   X   X  X   =       ",
"X7=X XX   X  =X=X<    =   X< XX     X X   XX  =  X       X X X  ",
" =7       =XXXXX      =X  XXX:X     =   =      X      X    X    ",
"XXX   X    XX==         ====  $X    XX =        X X             "
};
